General
Complete name                            : LA2003.mp4
Format                                   : MPEG-4
Format profile                           : Base Media / Version 2
Codec ID                                 : mp42
File size                                : 293 MiB
Duration                                 : 2h 9mn
Overall bit rate mode                    : Variable
Overall bit rate                         : 317 Kbps

Video
ID                                       : 1
Format                                   : AVC
Format/Info                              : Advanced Video Codec
Format profile                           : Baseline@L2.1
Format settings, CABAC                   : No
Format settings, ReFrames                : 2 frames
Codec ID                                 : avc1
Codec ID/Info                            : Advanced Video Coding
Duration                                 : 2h 9mn
Bit rate mode                            : Variable
Bit rate                                 : 250 Kbps
Width                                    : 640 pixels
Height                                   : 272 pixels
Display aspect ratio                     : 2.35:1
Frame rate mode                          : Constant
Frame rate                               : 25.000 fps
Color space                              : YUV
Chroma subsampling                       : 4:2:0
Bit depth                                : 8 bits
Scan type                                : Progressive
Bits/(Pixel*Frame)                       : 0.057
Stream size                              : 231 MiB (79%)
Writing library                          : x264 core 120

Audio
ID                                       : 2
Format                                   : AAC
Format/Info                              : Advanced Audio Codec
Format profile                           : LC
Codec ID                                 : 40
Duration                                 : 2h 9mn
Bit rate mode                            : Variable
Bit rate                                 : 64.2 Kbps
Maximum bit rate                         : 110 Kbps
Channel(s)                               : 2 channels
Channel positions                        : Front: L R
Sampling rate                            : 48.0 KHz
Compression mode                         : Lossy
Stream size                              : 59.3 MiB (20%)
Language                                 : English
 
http://img812.imageshack.us/img812/5544/vlcsnap2012090621h53m59.png 
http://img405.imageshack.us/img405/5964/vlcsnap2012090621h48m52.png 
http://img513.imageshack.us/img513/6177/la200.jpg